<?xml version="1.0" encoding="utf-8"?>
<!-- Generator: Adobe Illustrator 17.1.0, SVG Export Plug-In . SVG Version: 6.00 Build 0)  -->
<!DOCTYPE svg PUBLIC "-//W3C//DTD SVG 1.1//EN" "http://www.w3.org/Graphics/SVG/1.1/DTD/svg11.dtd">
<svg version="1.1" id="Layer_1" xmlns="http://www.w3.org/2000/svg" xmlns:xlink="http://www.w3.org/1999/xlink" x="0px" y="0px"
	 viewBox="0 0 100 100" enable-background="new 0 0 100 100" xml:space="preserve">
<g>
	<g>
		<g>
			<g>
				<path fill="#262626" d="M37.2,58.5c-8.7,0-10.4-5.6-10.7-8C26,46.2,27,43.9,30,43c0.9-0.3,3.6-0.6,6.7-0.6
					c6.7,0,10.4,1.7,10.8,4.8c0.3,3-0.6,5.9-2.4,8C43.1,57.3,40.4,58.5,37.2,58.5z M36.7,44.1c-3,0-5.6,0.4-6.2,0.6
					c-1.5,0.4-2.8,1.2-2.3,5.6c0.5,4.2,3.7,6.5,9,6.5c2.6,0,5-1,6.5-2.7c1.6-1.7,2.3-4.1,2-6.6C45.5,44.5,39.3,44.1,36.7,44.1z"/>
			</g>
			<g>
				<path fill="#262626" d="M62.9,58.5c-3.1,0-5.9-1.2-7.8-3.3c-1.9-2.1-2.8-5-2.5-8c0.3-3.2,4.1-4.8,10.8-4.8
					c3.1,0,5.8,0.4,6.7,0.6c3,0.9,4.1,3.1,3.5,7.5C73.3,52.9,71.7,58.5,62.9,58.5z M63.4,44.1c-2.6,0-8.7,0.3-9.1,3.3
					c-0.3,2.5,0.5,4.9,2,6.6c1.6,1.8,3.9,2.7,6.5,2.7c5.3,0,8.5-2.3,9-6.5c0.6-4.4-0.8-5.2-2.3-5.6C69,44.5,66.4,44.1,63.4,44.1z"/>
			</g>
			<g>
				<path fill="#262626" d="M53.7,47.1c-0.1,0-0.3,0-0.4-0.1c-3.1-1.7-6.6,0-6.6,0c-0.4,0.2-0.9,0-1.2-0.4c-0.2-0.4,0-0.9,0.4-1.2
					c0.2-0.1,4.3-2.1,8.2,0c0.4,0.2,0.6,0.7,0.4,1.2C54.3,47,54,47.1,53.7,47.1z"/>
			</g>
		</g>
		<g>
			<path fill="#262626" d="M50,63.3c-4.1,0-5.2-2.4-5.2-3.7c0-0.5,0.4-0.9,0.9-0.9c0.5,0,0.9,0.4,0.9,0.8c0,0.2,0.2,2,3.4,2
				c3.3,0,3.4-1.8,3.4-2c0-0.5,0.4-0.9,0.9-0.9c0.5,0,0.9,0.4,0.9,0.9C55.2,60.9,54.1,63.3,50,63.3z"/>
		</g>
		<g>
			<path fill="#262626" d="M55.2,70.5H44.8c-0.5,0-0.9-0.4-0.9-0.9c0-0.5,0.4-0.9,0.9-0.9h10.3c0.5,0,0.9,0.4,0.9,0.9
				C56,70.1,55.6,70.5,55.2,70.5z"/>
		</g>
		<g>
			<path fill="#262626" d="M51.7,73.9h-3.4c-0.5,0-0.9-0.4-0.9-0.9c0-0.5,0.4-0.9,0.9-0.9h3.4c0.5,0,0.9,0.4,0.9,0.9
				C52.6,73.5,52.2,73.9,51.7,73.9z"/>
		</g>
		<g>
			<path fill="#262626" d="M74.1,32.7c-0.2,0-0.4-0.1-0.6-0.3c-0.1-0.1-6.9-6.6-23.5-6.6c-16.6,0-23.4,6.6-23.5,6.6
				c-0.2,0.2-0.6,0.3-0.9,0.2c-0.3-0.1-0.5-0.4-0.5-0.8V21.5c0-0.2,0-5.4,3.1-10.7C33.4,1.9,42.9,0,50,0c7.1,0,16.6,1.9,21.8,10.7
				c3.1,5.3,3.1,10.5,3.1,10.7v10.3c0,0.3-0.2,0.7-0.5,0.8C74.3,32.6,74.2,32.7,74.1,32.7z M50,1.7c-9.6,0-16.4,3.3-20.3,9.8
				c-2.9,4.9-2.9,9.9-2.9,9.9V30c2.9-2,10.1-5.9,23.2-5.9c13.1,0,20.3,3.9,23.2,5.9v-8.5c0,0,0-5-2.9-9.9C66.4,5,59.6,1.7,50,1.7z"
				/>
		</g>
		<g>
			<path fill="#262626" d="M76.1,36.3c-0.1,0-0.2,0-0.3,0c-0.1,0-11.2-3.7-25.8-3.7s-25.7,3.6-25.8,3.7c-0.4,0.1-0.8,0-1-0.3
				c-0.2-0.3-0.3-0.7-0.1-1.1l2.1-3.7l1.6,0.9l-1,1.7c4-1.1,13.1-3.1,24.1-3.1c11,0,20.1,2,24.1,3.1l-1-1.7l1.6-0.9l2.1,3.7
				c0.2,0.3,0.2,0.8-0.1,1.1C76.6,36.2,76.3,36.3,76.1,36.3z"/>
		</g>
		<g>
			<circle fill="#262626" cx="37.1" cy="48.1" r="2.6"/>
		</g>
		<g>
			<circle fill="#262626" cx="62.9" cy="48.1" r="2.6"/>
		</g>
		<g>
			<path fill="#262626" d="M43.1,31.8L62,39.1l-1.7-3.4h3.4L62,32.2C62,32.2,53.4,31.8,43.1,31.8z"/>
		</g>
		<g>
			<path fill="#262626" d="M44.8,40.4c0,0.9-0.8,1.7-1.7,1.7H32.8c-0.9,0-1.7-0.8-1.7-1.7l0,0c0-0.9,0.8-1.7,1.7-1.7h10.3
				C44.1,38.7,44.8,39.4,44.8,40.4L44.8,40.4z"/>
		</g>
		<g>
			<path fill="#262626" d="M68.9,40.4c0,0.9-0.8,1.7-1.7,1.7H56.9c-0.9,0-1.7-0.8-1.7-1.7l0,0c0-0.9,0.8-1.7,1.7-1.7h10.3
				C68.1,38.7,68.9,39.4,68.9,40.4L68.9,40.4z"/>
		</g>
		<g>
			<path fill="#262626" d="M50,84.5c-10.4,0-15.3-6.8-19.6-12.8C30,71,29.5,70.4,29,69.7c-3.9-5.4-4-16.8-4-17.3V35.2
				c0-0.5,0.4-0.9,0.9-0.9c0.5,0,0.9,0.4,0.9,0.9v17.2c0,0.1,0,11.4,3.6,16.3c0.5,0.6,0.9,1.3,1.4,2c4.2,6,8.6,12.1,18.2,12.1
				c0.5,0,0.9,0.4,0.9,0.9C50.9,84.1,50.5,84.5,50,84.5z"/>
		</g>
		<g>
			<path fill="#262626" d="M50,84.5c-0.5,0-0.9-0.4-0.9-0.9c0-0.5,0.4-0.9,0.9-0.9c9.5,0,13.9-6.2,18.2-12.1c0.5-0.7,0.9-1.3,1.4-2
				c3.6-4.9,3.6-16.2,3.6-16.3V35.2c0-0.5,0.4-0.9,0.9-0.9c0.5,0,0.9,0.4,0.9,0.9v17.2c0,0.5,0,11.9-4,17.3
				c-0.5,0.6-0.9,1.3-1.4,1.9C65.3,77.7,60.4,84.5,50,84.5z"/>
		</g>
		<g>
			<path fill="#262626" stroke="#231F20" stroke-width="6.8518" stroke-linecap="round" stroke-miterlimit="10" d="M50,83.6"/>
		</g>
		<g>
			<path fill="#262626" d="M74.1,53.3c-0.5,0-0.9-0.4-0.9-0.9V35.2c0-0.5,0.4-0.9,0.9-0.9c0.5,0,0.9,0.4,0.9,0.9v17.2
				C74.9,52.9,74.5,53.3,74.1,53.3z"/>
		</g>
		<g>
			<polygon fill="#262626" points="25,35 20.5,41.2 23.9,41.2 22.8,44.7 25.9,43.8 			"/>
		</g>
		<g>
			<polygon fill="#262626" points="75,35 79.5,41.2 76.1,41.2 77.2,44.7 74.1,43.8 			"/>
		</g>
		<g>
			<g>
				<path fill="#262626" d="M32.1,73.3c-0.4,0-0.7-0.3-0.7-0.7v-4.3c0-0.4,0.3-0.7,0.7-0.7c0.4,0,0.7,0.3,0.7,0.7v4.3
					C32.8,73,32.5,73.3,32.1,73.3z"/>
			</g>
			<g>
				<path fill="#262626" d="M34.8,76.7c-0.4,0-0.7-0.3-0.7-0.7v-4.3c0-0.4,0.3-0.7,0.7-0.7c0.4,0,0.7,0.3,0.7,0.7V76
					C35.5,76.4,35.2,76.7,34.8,76.7z"/>
			</g>
			<g>
				<path fill="#262626" d="M37.5,79.7c-0.4,0-0.7-0.3-0.7-0.7v-4.3c0-0.4,0.3-0.7,0.7-0.7c0.4,0,0.7,0.3,0.7,0.7v4.3
					C38.2,79.4,37.9,79.7,37.5,79.7z"/>
			</g>
			<g>
				<path fill="#262626" d="M40.2,81.5c-0.4,0-0.7-0.3-0.7-0.7v-4c0-0.4,0.3-0.7,0.7-0.7s0.7,0.3,0.7,0.7v4
					C40.9,81.2,40.6,81.5,40.2,81.5z"/>
			</g>
			<g>
				<path fill="#262626" d="M42.9,83.2c-0.4,0-0.7-0.3-0.7-0.7v-4.3c0-0.4,0.3-0.7,0.7-0.7c0.4,0,0.7,0.3,0.7,0.7v4.3
					C43.6,82.9,43.3,83.2,42.9,83.2z"/>
			</g>
			<g>
				<path fill="#262626" d="M45.6,84c-0.4,0-0.7-0.3-0.7-0.7v-4.3c0-0.4,0.3-0.7,0.7-0.7s0.7,0.3,0.7,0.7v4.3
					C46.3,83.7,46,84,45.6,84z"/>
			</g>
			<g>
				<path fill="#262626" d="M48.3,84c-0.4,0-0.7-0.3-0.7-0.7v-4.3c0-0.4,0.3-0.7,0.7-0.7c0.4,0,0.7,0.3,0.7,0.7v4.3
					C49,83.7,48.7,84,48.3,84z"/>
			</g>
		</g>
		<g>
			<g>
				<path fill="#262626" d="M67.9,73.2c-0.4,0-0.7-0.3-0.7-0.7v-4.3c0-0.4,0.3-0.7,0.7-0.7c0.4,0,0.7,0.3,0.7,0.7v4.3
					C68.6,72.9,68.3,73.2,67.9,73.2z"/>
			</g>
			<g>
				<path fill="#262626" d="M65.2,76.7c-0.4,0-0.7-0.3-0.7-0.7v-4.3c0-0.4,0.3-0.7,0.7-0.7c0.4,0,0.7,0.3,0.7,0.7V76
					C65.9,76.4,65.6,76.7,65.2,76.7z"/>
			</g>
			<g>
				<path fill="#262626" d="M62.5,79.7c-0.4,0-0.7-0.3-0.7-0.7v-4.3c0-0.4,0.3-0.7,0.7-0.7s0.7,0.3,0.7,0.7V79
					C63.2,79.4,62.9,79.7,62.5,79.7z"/>
			</g>
			<g>
				<path fill="#262626" d="M59.8,81.8c-0.4,0-0.7-0.3-0.7-0.7v-4.3c0-0.4,0.3-0.7,0.7-0.7c0.4,0,0.7,0.3,0.7,0.7v4.3
					C60.5,81.5,60.2,81.8,59.8,81.8z"/>
			</g>
			<g>
				<path fill="#262626" d="M57.1,83.1c-0.4,0-0.7-0.3-0.7-0.7v-4.3c0-0.4,0.3-0.7,0.7-0.7s0.7,0.3,0.7,0.7v4.3
					C57.8,82.8,57.5,83.1,57.1,83.1z"/>
			</g>
			<g>
				<path fill="#262626" d="M54.4,84c-0.4,0-0.7-0.3-0.7-0.7V79c0-0.4,0.3-0.7,0.7-0.7s0.7,0.3,0.7,0.7v4.3
					C55.1,83.7,54.8,84,54.4,84z"/>
			</g>
			<g>
				<path fill="#262626" d="M51.7,84c-0.4,0-0.7-0.3-0.7-0.7V79c0-0.4,0.3-0.7,0.7-0.7c0.4,0,0.7,0.3,0.7,0.7v4.3
					C52.4,83.7,52.1,84,51.7,84z"/>
			</g>
		</g>
		<g>
			<path fill="#262626" d="M52.7,20.1h-6.1c-0.3,0-0.6-0.3-0.6-0.6c0-0.3,0.3-0.6,0.6-0.6h6.1c1.8,0,1.8-1.7,1.8-1.8v-4.9
				c0-1.7-1.5-1.8-1.8-1.8h-6.1c-0.3,0-0.6-0.3-0.6-0.6c0-0.3,0.3-0.6,0.6-0.6h6.1c0.1,0,0.8,0,1.5,0.4c1,0.5,1.6,1.5,1.6,2.7v4.9
				c0,0.1,0,0.8-0.4,1.5C54.9,19.6,53.9,20.1,52.7,20.1z"/>
		</g>
		<g>
			<path fill="#262626" d="M47.8,20.1c-0.3,0-0.6-0.3-0.6-0.6V9.9c0-0.3,0.3-0.6,0.6-0.6c0.3,0,0.6,0.3,0.6,0.6v9.6
				C48.4,19.9,48.1,20.1,47.8,20.1z"/>
		</g>
		<g>
			<path fill="#262626" d="M50.2,20.1c-0.3,0-0.6-0.3-0.6-0.6V9.9c0-0.3,0.3-0.6,0.6-0.6c0.3,0,0.6,0.3,0.6,0.6v9.6
				C50.9,19.9,50.6,20.1,50.2,20.1z"/>
		</g>
		<g>
			<path fill="#262626" d="M47.8,14h-1.2c-0.3,0-0.6-0.3-0.6-0.6c0-0.3,0.3-0.6,0.6-0.6h1.2c0.3,0,0.6,0.3,0.6,0.6
				C48.4,13.7,48.1,14,47.8,14z"/>
		</g>
		<g>
			<path fill="#262626" d="M50.2,12.8h-2.5c-0.3,0-0.6-0.3-0.6-0.6c0-0.3,0.3-0.6,0.6-0.6h2.5c0.3,0,0.6,0.3,0.6,0.6
				C50.9,12.5,50.6,12.8,50.2,12.8z"/>
		</g>
		<g>
			<path fill="#262626" d="M50.2,17.7h-2.5c-0.3,0-0.6-0.3-0.6-0.6c0-0.3,0.3-0.6,0.6-0.6h2.5c0.3,0,0.6,0.3,0.6,0.6
				C50.9,17.4,50.6,17.7,50.2,17.7z"/>
		</g>
		<g>
			<path fill="#262626" d="M47.8,16.4h-1.2c-0.3,0-0.6-0.3-0.6-0.6c0-0.3,0.3-0.6,0.6-0.6h1.2c0.3,0,0.6,0.3,0.6,0.6
				C48.4,16.2,48.1,16.4,47.8,16.4z"/>
		</g>
		<g>
			<path fill="#262626" d="M50.2,14c-0.3,0-0.6-0.3-0.6-0.6c0-0.3,0.3-0.6,0.6-0.6c2,0,4-0.3,4.3-0.7c0-0.3,0.3-0.6,0.6-0.6
				c0.3,0,0.6,0.3,0.6,0.6C55.8,13,54.8,14,50.2,14z"/>
		</g>
		<g>
			<path fill="#262626" d="M55.2,17.7c-0.3,0-0.6-0.2-0.6-0.6c-0.3-0.4-2.3-0.7-4.3-0.7c-0.3,0-0.6-0.3-0.6-0.6
				c0-0.3,0.3-0.6,0.6-0.6c4.6,0,5.5,1,5.5,1.8C55.8,17.4,55.5,17.7,55.2,17.7z"/>
		</g>
		<g>
			<path fill="#262626" d="M47.2,67.1c-0.4,0-0.7-0.3-0.7-0.7v-1.6c0-0.4,0.3-0.7,0.7-0.7c0.4,0,0.7,0.3,0.7,0.7v1.6
				C47.9,66.8,47.6,67.1,47.2,67.1z"/>
		</g>
		<g>
			<path fill="#262626" d="M44.6,67.6c-0.4,0-0.7-0.3-0.7-0.7v-1.6c0-0.4,0.3-0.7,0.7-0.7c0.4,0,0.7,0.3,0.7,0.7v1.6
				C45.3,67.3,45,67.6,44.6,67.6z"/>
		</g>
		<g>
			<path fill="#262626" d="M42,68c-0.4,0-0.7-0.3-0.7-0.7v-1.6c0-0.4,0.3-0.7,0.7-0.7c0.4,0,0.7,0.3,0.7,0.7v1.6
				C42.7,67.7,42.4,68,42,68z"/>
		</g>
		<g>
			<path fill="#262626" d="M39.4,68.8c-0.4,0-0.7-0.3-0.7-0.7v-1.6c0-0.4,0.3-0.7,0.7-0.7c0.4,0,0.7,0.3,0.7,0.7v1.6
				C40.1,68.5,39.8,68.8,39.4,68.8z"/>
		</g>
		<g>
			<path fill="#262626" d="M52.7,67.1c-0.4,0-0.7-0.3-0.7-0.7v-1.6c0-0.4,0.3-0.7,0.7-0.7s0.7,0.3,0.7,0.7v1.6
				C53.4,66.8,53.1,67.1,52.7,67.1z"/>
		</g>
		<g>
			<path fill="#262626" d="M55.3,67.6c-0.4,0-0.7-0.3-0.7-0.7v-1.6c0-0.4,0.3-0.7,0.7-0.7c0.4,0,0.7,0.3,0.7,0.7v1.6
				C56,67.3,55.7,67.6,55.3,67.6z"/>
		</g>
		<g>
			<path fill="#262626" d="M57.9,68c-0.4,0-0.7-0.3-0.7-0.7v-1.6c0-0.4,0.3-0.7,0.7-0.7c0.4,0,0.7,0.3,0.7,0.7v1.6
				C58.5,67.7,58.2,68,57.9,68z"/>
		</g>
		<g>
			<path fill="#262626" d="M60.4,68.8c-0.4,0-0.7-0.3-0.7-0.7v-1.6c0-0.4,0.3-0.7,0.7-0.7c0.4,0,0.7,0.3,0.7,0.7v1.6
				C61.1,68.5,60.8,68.8,60.4,68.8z"/>
		</g>
	</g>
	<g>
		<g>
			<path fill="#262626" d="M42.7,94.6L42.7,94.6c0-3.1,2.4-5.4,5.5-5.4c2.3,0,3.8,1.1,4.7,2.7l-2.9,1.7c-0.4-0.7-0.9-1.3-1.9-1.3
				c-1.2,0-1.9,1-1.9,2.3v0c0,1.3,0.8,2.3,1.9,2.3c1,0,1.5-0.5,2-1.3l2.9,1.6c-0.9,1.5-2.3,2.8-4.9,2.8
				C45.2,100,42.7,97.8,42.7,94.6z"/>
			<path fill="#262626" d="M53.5,89.4h3.9l2,5.8l2-5.8h3.8L61,99.9h-3.3L53.5,89.4z"/>
		</g>
		<g>
			<path fill="#262626" d="M34.8,99.9L39,89.4h3.8l-4.2,10.4h-3.3"/>
		</g>
	</g>
</g>
</svg>
